# xmcd
#
# Track frame offsets:
#	187
#	12255
#	24407
#	36232
#	46617
#	57040
#	66502
#	78187
#	91617
#	104137
#	114962
#	126890
#
# Disc length: 1968
#
# Revision: 3
# Processed by: cddbd v1.5.1PL0 Copyright (c) Steve Scherf et al.
# Submitted via: CDWizzard Release:4.32
# Normalized: r1:TDELIM( - ),TSWAP
#
DISCID=8e07ae0c
DTITLE=Various Artist - British 60's
DYEAR=1900
DGENRE=
TTITLE0=Chad and Jeremy - A Summer Song
TTITLE1=Peter and Gordon - A World Without Love
TTITLE2=Gerry and the Pacemakers - Don't Let The Sun Catch You Crying
TTITLE3=The Hollies - Look Through Any Window
TTITLE4=Donovan Leitch - Catch The Wind
TTITLE5=The Searchers - Love Potion Number Nine
TTITLE6=The Foundations - Baby, Now That I've Found You
TTITLE7=The Honeycombs - Have I The Right
TTITLE8=Small Faces - Itchychoo Park
TTITLE9=Manfred Mann - Do Wah Diddy Diddy
TTITLE10=The Yardbirds - I'm A Man
TTITLE11=The Animals - Don't Bring Me Down
EXTD=
EXTT0=
EXTT1=
EXTT2=
EXTT3=
EXTT4=
EXTT5=
EXTT6=
EXTT7=
EXTT8=
EXTT9=
EXTT10=
EXTT11=
PLAYORDER=
